<svg xmlns="http://www.w3.org/2000/svg" width="69.166" height="20.844" viewBox="0 0 69.166 20.844"><g transform="translate(0)"><g transform="translate(9.731 12.577)"><path d="M314.13,322.325a26.323,26.323,0,0,1-14.862,4.543,26.9,26.9,0,0,1-18.155-6.925c-.376-.34-.041-.8.412-.541a36.544,36.544,0,0,0,18.165,4.82,36.14,36.14,0,0,0,13.856-2.835C314.225,321.1,314.794,321.834,314.13,322.325Z" transform="translate(-280.95 -318.601)" fill="#f90" fill-rule="evenodd"/><path d="M424.048,317.791c-.514-.658-3.4-.312-4.693-.157-.392.047-.453-.3-.1-.544,2.3-1.616,6.07-1.149,6.508-.608s-.116,4.325-2.271,6.128c-.332.277-.647.129-.5-.237C423.477,321.162,424.563,318.45,424.048,317.791Z" transform="translate(-389.197 -315.977)" fill="#f90" fill-rule="evenodd"/></g><path d="M419.528,261.15v-1.57a.388.388,0,0,1,.4-.4h7.037a.392.392,0,0,1,.406.4v1.346a2.209,2.209,0,0,1-.53.988l-3.645,5.2a7.809,7.809,0,0,1,4.014.862.718.718,0,0,1,.373.613v1.675c0,.231-.253.5-.519.359a8.1,8.1,0,0,0-7.435.014c-.245.13-.5-.133-.5-.364v-1.592a1.894,1.894,0,0,1,.262-1.079l4.223-6.059h-3.677A.391.391,0,0,1,419.528,261.15Z" transform="translate(-379.548 -258.874)" fill-rule="evenodd"/><path d="M293,270.221h-2.141a.4.4,0,0,1-.383-.362l0-10.987a.4.4,0,0,1,.413-.4h1.994a.4.4,0,0,1,.389.369v1.434h.04a2.94,2.94,0,0,1,5.595,0,3.162,3.162,0,0,1,5.435-.832c.679.925.54,2.266.54,3.445l0,6.934a.4.4,0,0,1-.413.4h-2.138a.4.4,0,0,1-.384-.395V264a14.051,14.051,0,0,0-.06-2.057A1.116,1.116,0,0,0,300.63,261a1.42,1.42,0,0,0-1.279.9,6.652,6.652,0,0,0-.2,2.1v5.824a.4.4,0,0,1-.413.4H296.6a.4.4,0,0,1-.385-.395l0-5.825c0-1.225.2-3.028-1.319-3.028-1.539,0-1.479,1.757-1.479,3.028v5.824A.4.4,0,0,1,293,270.221Z" transform="translate(-278.689 -258.139)" fill-rule="evenodd"/><path d="M467.845,258.245c3.177,0,4.9,2.729,4.9,6.2,0,3.352-1.9,6.011-4.9,6.011-3.117,0-4.816-2.729-4.816-6.127C463.029,260.9,464.747,258.245,467.845,258.245Zm.019,2.243c-1.578,0-1.678,2.15-1.678,3.491s-.02,4.208,1.659,4.208c1.659,0,1.738-2.312,1.738-3.722a10.161,10.161,0,0,0-.32-2.913A1.34,1.34,0,0,0,467.865,260.488Z" transform="translate(-413.967 -258.139)" fill-rule="evenodd"/><path d="M517.915,270.221h-2.133a.4.4,0,0,1-.384-.395l0-10.991a.406.406,0,0,1,.411-.359h1.985a.407.407,0,0,1,.381.308v1.681h.04c.6-1.5,1.439-2.22,2.917-2.22a2.806,2.806,0,0,1,2.5,1.295,6.99,6.99,0,0,1,.56,3.422v6.914a.406.406,0,0,1-.41.346h-2.146a.4.4,0,0,1-.381-.346V263.91c0-1.2.14-2.96-1.339-2.96a1.4,1.4,0,0,0-1.239.878,4.889,4.889,0,0,0-.34,2.082v5.916A.41.41,0,0,1,517.915,270.221Z" transform="translate(-455.02 -258.139)" fill-rule="evenodd"/><path d="M372.124,264.59a4.2,4.2,0,0,1-.4,2.271,1.74,1.74,0,0,1-1.482.973c-.821,0-1.3-.626-1.3-1.553,0-1.823,1.635-2.155,3.184-2.155Zm2.158,5.22a.442.442,0,0,1-.505.05,5.227,5.227,0,0,1-1.227-1.426,4.243,4.243,0,0,1-3.529,1.556,3.039,3.039,0,0,1-3.2-3.337,3.636,3.636,0,0,1,2.283-3.5,14.809,14.809,0,0,1,4.025-.742v-.278a2.739,2.739,0,0,0-.261-1.552,1.43,1.43,0,0,0-1.2-.556,1.63,1.63,0,0,0-1.721,1.285.453.453,0,0,1-.372.394l-2.075-.225a.377.377,0,0,1-.32-.448c.477-2.517,2.751-3.277,4.787-3.277a4.852,4.852,0,0,1,3.224,1.066c1.042.973.941,2.271.941,3.685v3.335a2.922,2.922,0,0,0,.808,1.984.4.4,0,0,1-.007.569c-.437.367-1.214,1.041-1.641,1.422Z" transform="translate(-337.752 -257.754)" fill-rule="evenodd"/><path d="M242.21,264.59a4.2,4.2,0,0,1-.4,2.271,1.739,1.739,0,0,1-1.482.973c-.821,0-1.3-.626-1.3-1.553,0-1.823,1.636-2.155,3.184-2.155Zm2.159,5.22a.443.443,0,0,1-.506.05,5.209,5.209,0,0,1-1.227-1.426,4.244,4.244,0,0,1-3.529,1.556,3.039,3.039,0,0,1-3.2-3.337,3.636,3.636,0,0,1,2.283-3.5,14.81,14.81,0,0,1,4.025-.742v-.278a2.741,2.741,0,0,0-.26-1.552,1.431,1.431,0,0,0-1.2-.556,1.63,1.63,0,0,0-1.721,1.285.453.453,0,0,1-.372.394l-2.075-.225a.377.377,0,0,1-.32-.448c.477-2.517,2.75-3.277,4.787-3.277a4.854,4.854,0,0,1,3.224,1.066c1.041.973.941,2.271.941,3.685v3.335a2.922,2.922,0,0,0,.808,1.984.4.4,0,0,1-.007.569c-.437.367-1.215,1.041-1.642,1.422Z" transform="translate(-235.902 -257.754)" fill-rule="evenodd"/></g></svg>