<?xml version="1.0" encoding="utf-8"?>
<!-- Generator: Adobe Illustrator 23.0.0, SVG Export Plug-In . SVG Version: 6.00 Build 0)  -->
<svg version="1.1" id="Capa_1" xmlns="http://www.w3.org/2000/svg" xmlns:xlink="http://www.w3.org/1999/xlink" x="0px" y="0px"
	 viewBox="0 0 150 55.2" style="enable-background:new 0 0 150 55.2;" xml:space="preserve">
<style type="text/css">
	.st0{fill:#343E4D;}
	.st1{fill:#4EE6AE;}
</style>
<g>
	<path class="st0" d="M11.9,7.1c1.5,0,2.7,0.1,3.6,0.4c1,0.2,1.8,0.5,2.4,0.8l-1.4,6.1c-0.6-0.2-1.2-0.4-1.8-0.5
		c-0.7-0.1-1.4-0.2-2.1-0.2c-0.9,0-1.7,0.1-2.4,0.4c-0.6,0.3-1.1,0.6-1.5,1.1c-0.4,0.4-0.6,1-0.8,1.6c-0.2,0.6-0.2,1.3-0.2,2v1.4
		h9.6v6.4H7.7v20.9H0V18.6c0-3.5,1-6.3,3-8.4C5,8.1,7.9,7.1,11.9,7.1z M32.7,47.9c-2.3,0-4.1-0.3-5.5-0.7c-1.4-0.5-2.5-1.1-3.3-1.9
		c-0.8-0.8-1.4-1.8-1.7-3c-0.3-1.2-0.4-2.5-0.4-3.9V8.3l7.7-1.2v29.8c0,0.7,0.1,1.3,0.2,1.9c0.1,0.6,0.3,1,0.6,1.4
		c0.3,0.4,0.7,0.7,1.3,0.9c0.6,0.2,1.3,0.4,2.2,0.5L32.7,47.9z"/>
	<path class="st0" d="M37,33.9c0-2.4,0.4-4.5,1.1-6.4c0.7-1.8,1.7-3.3,2.9-4.5c1.2-1.2,2.6-2.1,4.2-2.8c1.6-0.6,3.2-0.9,4.9-0.9
		c3.9,0,6.9,1.2,9.2,3.6s3.4,5.9,3.4,10.5c0,0.5,0,0.9-0.1,1.5c0,0.5-0.1,1-0.1,1.4H44.9c0.2,1.6,0.9,2.9,2.2,3.8
		c1.3,0.9,3.1,1.4,5.3,1.4c1.4,0,2.8-0.1,4.2-0.4c1.4-0.3,2.5-0.6,3.4-1l1,6.3c-0.4,0.2-1,0.4-1.7,0.6s-1.5,0.4-2.3,0.5
		c-0.9,0.2-1.8,0.3-2.7,0.4c-1,0.1-1.9,0.2-2.9,0.2c-2.5,0-4.6-0.4-6.4-1.1c-1.8-0.7-3.3-1.7-4.5-3c-1.2-1.3-2.1-2.8-2.7-4.5
		C37.2,37.8,37,35.9,37,33.9z M55.1,31c0-0.7-0.1-1.3-0.3-1.9c-0.2-0.6-0.5-1.2-0.9-1.7c-0.4-0.5-0.9-0.9-1.5-1.2
		c-0.6-0.3-1.4-0.5-2.3-0.5c-0.9,0-1.6,0.1-2.2,0.4c-0.6,0.3-1.1,0.7-1.6,1.2c-0.4,0.5-0.7,1-1,1.7c-0.2,0.6-0.4,1.3-0.5,1.9H55.1z"
		/>
	<path class="st0" d="M79.4,27.7l5.4-7.7h8l-9.5,13.3c2.2,2.5,4.1,5,5.8,7.4c1.7,2.5,3,4.7,4.1,6.6h-8.3c-0.3-0.5-0.6-1.2-1-1.9
		c-0.4-0.8-0.9-1.6-1.4-2.4c-0.5-0.9-1.1-1.6-1.6-2.2c-0.6-0.6-1.1-1.1-1.7-1.6c-0.5,0.4-1.1,0.9-1.6,1.5c-0.5,0.5-1.1,1.2-1.5,2
		c-0.5,0.8-1,1.6-1.4,2.4c-0.5,0.8-0.9,1.5-1.3,2.2h-7.9c0.4-0.9,1-1.9,1.7-3.1c0.7-1.2,1.5-2.4,2.4-3.7c0.9-1.3,1.8-2.5,2.8-3.7
		c1-1.2,2-2.3,2.9-3.4c-1.7-2.4-3.3-4.7-4.9-7c-1.6-2.2-3.1-4.4-4.7-6.6h8.4L79.4,27.7z"/>
	<path class="st0" d="M105.9,12.2c0,1.4-0.5,2.5-1.4,3.4c-0.9,0.8-2,1.2-3.2,1.2s-2.3-0.4-3.2-1.2c-0.9-0.8-1.4-1.9-1.4-3.4
		s0.5-2.5,1.4-3.4c0.9-0.8,2-1.2,3.2-1.2s2.3,0.4,3.2,1.2C105.4,9.6,105.9,10.7,105.9,12.2z M105.1,47.4h-7.7V20.1h7.7V47.4z"/>
	<path class="st0" d="M138,33.7c0,2.1-0.3,4.1-0.9,5.9s-1.5,3.3-2.7,4.6c-1.2,1.3-2.6,2.2-4.2,2.9s-3.5,1-5.5,1c-2,0-3.8-0.3-5.5-1
		s-3.1-1.7-4.2-2.9c-1.2-1.3-2.1-2.8-2.8-4.6c-0.7-1.8-1-3.8-1-5.9s0.3-4.1,1-5.9c0.7-1.8,1.6-3.3,2.8-4.5c1.2-1.2,2.6-2.2,4.3-2.9
		c1.6-0.7,3.4-1,5.4-1c2,0,3.8,0.3,5.4,1c1.6,0.7,3.1,1.7,4.2,2.9s2.1,2.8,2.8,4.5C137.7,29.6,138,31.5,138,33.7z M130.1,33.7
		c0-2.4-0.5-4.3-1.4-5.6c-1-1.4-2.3-2.1-4.1-2.1c-1.8,0-3.1,0.7-4.1,2.1c-1,1.4-1.5,3.2-1.5,5.6s0.5,4.3,1.5,5.7
		c1,1.4,2.3,2.1,4.1,2.1c1.8,0,3.1-0.7,4.1-2.1C129.6,38,130.1,36.1,130.1,33.7z"/>
	<path class="st1" d="M150,43.3c0,1.6-0.5,2.7-1.5,3.6c-1,0.8-2.1,1.2-3.4,1.2c-1.2,0-2.4-0.4-3.4-1.2c-1-0.8-1.5-2-1.5-3.6
		c0-1.6,0.5-2.7,1.5-3.6c1-0.8,2.1-1.2,3.4-1.2c1.2,0,2.4,0.4,3.4,1.2C149.5,40.5,150,41.7,150,43.3z"/>
</g>
</svg>
